<svg xmlns="http://www.w3.org/2000/svg" width="140" height="33.656" viewBox="0 0 140 33.656">
  <g id="Group_189" data-name="Group 189" transform="translate(-92.6 -36.4)">
    <g id="Group_188" data-name="Group 188" transform="translate(125.162 46.913)">
      <path id="Path_66" data-name="Path 66" d="M505.017,180.587h-1.606c-.28,0-.423-.136-.423-.4v-9.578a.183.183,0,0,0-.208-.208H500.6a.352.352,0,0,1-.4-.4v-1.3a.352.352,0,0,1,.4-.4h7.23a.352.352,0,0,1,.4.4V170a.352.352,0,0,1-.4.4h-2.181c-.152,0-.232.072-.232.208v9.578A.352.352,0,0,1,505.017,180.587Z" transform="translate(-500.2 -168.276)" fill="#fff"/>
      <path id="Path_67" data-name="Path 67" d="M613.4,180.311h-2.141a3.207,3.207,0,0,1-2.333-.807,3.085,3.085,0,0,1-.823-2.317v-6.063a3.085,3.085,0,0,1,.823-2.317,3.207,3.207,0,0,1,2.333-.807H613.4a3.207,3.207,0,0,1,2.333.807,3.085,3.085,0,0,1,.823,2.317v6.063a3.085,3.085,0,0,1-.823,2.317A3.161,3.161,0,0,1,613.4,180.311Zm-1.758-2.1H613a1.232,1.232,0,0,0,.871-.256,1.2,1.2,0,0,0,.256-.871v-5.832a1.232,1.232,0,0,0-.256-.871,1.2,1.2,0,0,0-.871-.256h-1.358a1.2,1.2,0,0,0-.863.256,1.234,1.234,0,0,0-.248.871v5.832a1.234,1.234,0,0,0,.248.871A1.2,1.2,0,0,0,611.639,178.21Z" transform="translate(-599.48 -168)" fill="#fff"/>
      <path id="Path_68" data-name="Path 68" d="M734.3,180.1V168.6a.352.352,0,0,1,.4-.4h4.721a3.2,3.2,0,0,1,2.325.815,3.087,3.087,0,0,1,.831,2.3v6.063a3.074,3.074,0,0,1-.831,2.3,3.17,3.17,0,0,1-2.325.815H734.7A.352.352,0,0,1,734.3,180.1Zm2.636-1.7h2.085a1.232,1.232,0,0,0,.871-.256,1.2,1.2,0,0,0,.256-.871v-5.832a1.232,1.232,0,0,0-.256-.871,1.2,1.2,0,0,0-.871-.256h-2.085a.182.182,0,0,0-.208.208v7.669A.182.182,0,0,0,736.936,178.394Z" transform="translate(-715.599 -168.184)" fill="#fff"/>
      <path id="Path_69" data-name="Path 69" d="M861.1,180.311h-2.141a3.207,3.207,0,0,1-2.333-.807,3.085,3.085,0,0,1-.823-2.317v-6.063a3.085,3.085,0,0,1,.823-2.317,3.207,3.207,0,0,1,2.333-.807H861.1a3.207,3.207,0,0,1,2.333.807,3.085,3.085,0,0,1,.823,2.317v6.063a3.085,3.085,0,0,1-.823,2.317A3.161,3.161,0,0,1,861.1,180.311Zm-1.757-2.1H860.7a1.232,1.232,0,0,0,.871-.256,1.2,1.2,0,0,0,.256-.871v-5.832a1.232,1.232,0,0,0-.256-.871,1.2,1.2,0,0,0-.871-.256h-1.358a1.2,1.2,0,0,0-.863.256,1.234,1.234,0,0,0-.248.871v5.832a1.234,1.234,0,0,0,.248.871A1.2,1.2,0,0,0,859.339,178.21Z" transform="translate(-827.393 -168)" fill="#fff"/>
      <path id="Path_70" data-name="Path 70" d="M977.732,177.271v-.383a.352.352,0,0,1,.4-.4h1.622a.352.352,0,0,1,.4.4v.152a1.321,1.321,0,0,0,.287.991,1.578,1.578,0,0,0,1.055.272h.895a1.11,1.11,0,0,0,1.334-1.358v-.232a.955.955,0,0,0-.447-.847,2.372,2.372,0,0,0-1.118-.352,11.867,11.867,0,0,1-1.446-.224,9.294,9.294,0,0,1-1.446-.423,2.266,2.266,0,0,1-1.118-1.015,3.717,3.717,0,0,1-.447-1.941v-.671a3.11,3.11,0,0,1,.839-2.317,3.186,3.186,0,0,1,2.333-.823h1.909a3.2,3.2,0,0,1,2.349.823,3.1,3.1,0,0,1,.839,2.317v.359a.352.352,0,0,1-.4.4h-1.622a.352.352,0,0,1-.4-.4v-.112a1.387,1.387,0,0,0-.287-1.015,1.579,1.579,0,0,0-1.055-.272h-.743a1.444,1.444,0,0,0-1.062.3,1.756,1.756,0,0,0-.28,1.158v.36c0,.6.519.943,1.566,1.031a9.626,9.626,0,0,1,2.884.647,2.445,2.445,0,0,1,1.118,1.023,3.6,3.6,0,0,1,.447,1.885v.647a3.11,3.11,0,0,1-.839,2.317,3.186,3.186,0,0,1-2.333.823H980.88a3.186,3.186,0,0,1-2.333-.823A3.1,3.1,0,0,1,977.732,177.271Z" transform="translate(-939.554 -168.092)" fill="#fff"/>
      <path id="Path_71" data-name="Path 71" d="M1105.285,180.311h-2.029a3.208,3.208,0,0,1-2.333-.807,3.085,3.085,0,0,1-.823-2.317v-6.063a3.085,3.085,0,0,1,.823-2.317,3.208,3.208,0,0,1,2.333-.807h2.029a3.163,3.163,0,0,1,2.317.815,3.083,3.083,0,0,1,.823,2.3v.575c0,.28-.136.423-.4.423H1106.4c-.272,0-.4-.144-.4-.423v-.455a1.234,1.234,0,0,0-.248-.871,1.162,1.162,0,0,0-.863-.256h-1.246a1.214,1.214,0,0,0-.855.256,1.2,1.2,0,0,0-.256.871v5.832a1.232,1.232,0,0,0,.256.871,1.164,1.164,0,0,0,.855.256h1.246a1.2,1.2,0,0,0,.863-.256,1.234,1.234,0,0,0,.248-.871v-1.206a.183.183,0,0,0-.208-.208h-1.15a.352.352,0,0,1-.4-.4v-1.3a.352.352,0,0,1,.4-.4h3.347a.386.386,0,0,1,.439.439v3.2a3.071,3.071,0,0,1-.823,2.3A3.154,3.154,0,0,1,1105.285,180.311Z" transform="translate(-1052.177 -168)" fill="#fff"/>
      <path id="Path_72" data-name="Path 72" d="M1216.562,180.587h-1.838c-.232,0-.3-.136-.232-.4l3.02-11.488a.542.542,0,0,1,.575-.4h2.54a.518.518,0,0,1,.575.4l3.02,11.488c.08.272,0,.4-.232.4h-1.837a.373.373,0,0,1-.288-.088.654.654,0,0,1-.112-.312l-.535-2.1h-3.73l-.535,2.1a.516.516,0,0,1-.128.312A.361.361,0,0,1,1216.562,180.587Zm2.772-9.978-1.374,5.528h2.828l-1.374-5.528Z" transform="translate(-1157.406 -168.276)" fill="#fff"/>
      <path id="Path_73" data-name="Path 73" d="M1357.672,168.2h2.828a.355.355,0,0,1,.4.4v11.488a.352.352,0,0,1-.4.4h-1.566a.352.352,0,0,1-.4-.4v-9.059h-.08l-1.949,6.407a.475.475,0,0,1-.479.383h-1.606a.475.475,0,0,1-.479-.383l-1.989-6.423h-.08V180.1a.327.327,0,0,1-.407.4H1349.9a.352.352,0,0,1-.4-.4V168.6a.352.352,0,0,1,.4-.4h2.852a.356.356,0,0,1,.359.272l2.029,6.75h.112l2.045-6.75A.34.34,0,0,1,1357.672,168.2Z" transform="translate(-1281.653 -168.184)" fill="#fff"/>
      <path id="Path_74" data-name="Path 74" d="M1521.646,180.495H1515.4a.352.352,0,0,1-.4-.4V168.6a.352.352,0,0,1,.4-.4h6.255c.256,0,.383.136.383.4v1.3c0,.272-.128.4-.383.4h-3.994c-.152,0-.232.072-.232.208v2.484c0,.144.08.208.232.208h3.267a.352.352,0,0,1,.4.4v1.3a.352.352,0,0,1-.4.4h-3.267c-.152,0-.232.072-.232.208v2.66c0,.144.08.208.232.208h3.994c.256,0,.383.136.383.4v1.3C1522.03,180.359,1521.9,180.495,1521.646,180.495Z" transform="translate(-1433.932 -168.184)" fill="#fff"/>
      <path id="Path_75" data-name="Path 75" d="M1623.321,180.495H1621.7a.352.352,0,0,1-.4-.4V168.6a.352.352,0,0,1,.4-.4h4.554a3.186,3.186,0,0,1,2.333.823,3.1,3.1,0,0,1,.839,2.317v1.494a2.793,2.793,0,0,1-1.7,2.868v.08l2.045,4.266c.112.3.008.455-.328.455h-1.55a1.091,1.091,0,0,1-.5-.08.551.551,0,0,1-.248-.328l-1.909-4.13h-1.278c-.152,0-.232.072-.232.208V180.1A.364.364,0,0,1,1623.321,180.495Zm.607-6.479h1.877a1.315,1.315,0,0,0,.895-.256,1.069,1.069,0,0,0,.288-.831v-1.494a1.147,1.147,0,0,0-.288-.863,1.288,1.288,0,0,0-.895-.272h-1.877a.183.183,0,0,0-.208.208V173.8A.188.188,0,0,0,1623.929,174.016Z" transform="translate(-1531.74 -168.184)" fill="#fff"/>
      <path id="Path_76" data-name="Path 76" d="M1739.532,177.271v-.383a.352.352,0,0,1,.4-.4h1.622a.352.352,0,0,1,.4.4v.152a1.321,1.321,0,0,0,.287.991,1.579,1.579,0,0,0,1.055.272h.895a1.11,1.11,0,0,0,1.334-1.358v-.232a.954.954,0,0,0-.447-.847,2.372,2.372,0,0,0-1.118-.352,11.871,11.871,0,0,1-1.446-.224,9.291,9.291,0,0,1-1.446-.423,2.265,2.265,0,0,1-1.118-1.015,3.715,3.715,0,0,1-.447-1.941v-.671a3.111,3.111,0,0,1,.839-2.317,3.186,3.186,0,0,1,2.333-.823h1.909a3.2,3.2,0,0,1,2.349.823,3.1,3.1,0,0,1,.839,2.317v.359a.352.352,0,0,1-.4.4h-1.622a.352.352,0,0,1-.4-.4v-.112a1.386,1.386,0,0,0-.287-1.015,1.579,1.579,0,0,0-1.055-.272h-.743a1.444,1.444,0,0,0-1.062.3,1.757,1.757,0,0,0-.28,1.158v.36c0,.6.519.943,1.566,1.031a9.626,9.626,0,0,1,2.884.647,2.445,2.445,0,0,1,1.118,1.023,3.6,3.6,0,0,1,.447,1.885v.647a3.111,3.111,0,0,1-.839,2.317,3.186,3.186,0,0,1-2.333.823h-2.085a3.186,3.186,0,0,1-2.333-.823A3.1,3.1,0,0,1,1739.532,177.271Z" transform="translate(-1640.498 -168.092)" fill="#fff"/>
    </g>
    <path id="Path_77" data-name="Path 77" d="M107.283,36.464l-.112-.064L92.6,44.812V61.636l14.571,8.42,14.571-8.412V44.812Zm-.112,6.327-8.412,4.841v3.579l4.609-.895V63.2l-6.734-3.89V47.145l10.537-6.079,10.537,6.079V59.311L111,63.178V50.316l4.585.887V47.632Z" transform="translate(0)" fill="#fff"/>
  </g>
</svg>
